<svg width="69" height="69" viewBox="0 0 69 69" fill="none" xmlns="http://www.w3.org/2000/svg">
<path fill-rule="evenodd" clip-rule="evenodd" d="M0 0H39.3663L0 21.3621V0ZM0 69V28.1886L27.1924 13.4326L33.6044 20.3121L11.4613 69H0ZM20.8317 69L39.9019 27.0688L69 58.2887V69H20.8317ZM69 45.0885V0H51.9462L35.363 8.99886L69 45.0885ZM11.5 47C12.3284 47 13 46.3284 13 45.5C13 44.6716 12.3284 44 11.5 44C10.6716 44 10 44.6716 10 45.5C10 46.3284 10.6716 47 11.5 47ZM11 34C11 35.6569 9.65685 37 8 37C6.34315 37 5 35.6569 5 34C5 32.3431 6.34315 31 8 31C9.65685 31 11 32.3431 11 34ZM22.0283 31.4609C24.2178 31.1671 25.7546 29.154 25.4609 26.9645C25.1671 24.775 23.154 23.2381 20.9645 23.5319C18.775 23.8257 17.2381 25.8388 17.5319 28.0283C17.8257 30.2178 19.8388 31.7546 22.0283 31.4609Z" fill="#00FB55"/>
</svg>
